<svg id="Layer_1" data-name="Layer 1" xmlns="http://www.w3.org/2000/svg" viewBox="0 0 247.1 43.2"><defs><style>.cls-1{fill:#717271;}.cls-2{fill:#3e8ede;}.cls-3{fill:#fff;}</style></defs><title>stsci_pri_combo_mark_horizonal_white_bkgd</title><path class="cls-1" d="M64,17.2a3.9,3.9,0,0,0-3.4-1.9,2.76,2.76,0,0,0-2.8,2.6c0,3.9,9.1,2.2,9.1,9.9,0,4.6-2.9,7.8-7.5,7.8-3.2,0-5.5-1.8-7-4.5l2.9-2.8a4.58,4.58,0,0,0,4.1,3.3,3.06,3.06,0,0,0,2.9-3.3c0-2.4-2.2-3-4-3.7-2.9-1.2-5.1-2.7-5.1-6.3a6.68,6.68,0,0,1,6.7-6.9,9.32,9.32,0,0,1,6.2,2.5Z" transform="translate(-2 -2)"/><path class="cls-1" d="M76.7,35H72.2V16H67.6V12.1H81.3V16H76.7V35Z" transform="translate(-2 -2)"/><polygon class="cls-1" points="110.9 29.1 112.8 29.1 112.8 33 104.6 33 104.6 29.1 106.5 29.1 106.5 14 104.6 14 104.6 10.1 112.8 10.1 112.8 14 110.9 14 110.9 29.1"/><path class="cls-1" d="M101.5,22.8a3.88,3.88,0,0,1,3.1,1.5V20.2a7,7,0,0,0-3.5-.9,7.45,7.45,0,0,0-6.6,3.8c-2.7-2.4-7.1-2.4-7.1-5.1a2.76,2.76,0,0,1,2.8-2.6,3.9,3.9,0,0,1,3.4,1.9l2.1-3.1a9.52,9.52,0,0,0-6.2-2.5,6.68,6.68,0,0,0-6.7,6.9c0,3.5,2.2,5,5.1,6.3,1.8,0.7,4,1.4,4,3.7A3,3,0,0,1,89,31.9a4.72,4.72,0,0,1-4.1-3.3L82,31.4c1.6,2.6,3.9,4.5,7,4.5a7.21,7.21,0,0,0,6.3-3.2,7.27,7.27,0,0,0,5.7,2.7,8.08,8.08,0,0,0,3.7-.9V30.4a3.89,3.89,0,0,1-3,1.4c-2.4,0-3.9-1.9-3.9-4.3S99.1,22.8,101.5,22.8Z" transform="translate(-2 -2)"/><path class="cls-1" d="M136.3,12.8a2,2,0,0,0-1.6-.9,1.24,1.24,0,0,0-1.3,1.2c0,1.8,4.3,1.1,4.3,4.7a3.39,3.39,0,0,1-3.6,3.7,3.81,3.81,0,0,1-3.3-2.1l1.4-1.3a2.26,2.26,0,0,0,2,1.6,1.42,1.42,0,0,0,1.4-1.6c0-1.1-1-1.4-1.9-1.8-1.4-.6-2.4-1.3-2.4-3a3.1,3.1,0,0,1,3.2-3.2,4.71,4.71,0,0,1,3,1.2Z" transform="translate(-2 -2)"/><path class="cls-1" d="M140.9,21.2h-2.1V10.4h2.9c2.3,0,3.7.9,3.7,3.4,0,2.3-1.2,3.4-3.5,3.4h-1v4Zm0-5.8h0.4c1.2,0,1.9-.3,1.9-1.7s-0.8-1.6-2-1.6h-0.4v3.3h0.1Z" transform="translate(-2 -2)"/><path class="cls-1" d="M147.4,18.9l-0.9,2.3h-2.2l4.2-11.1h1.6l4.1,11.1h-2.3l-0.8-2.3h-3.7Zm1.8-5.6h0L148,17.2h2.6Z" transform="translate(-2 -2)"/><path class="cls-1" d="M161.9,13.2a3.19,3.19,0,0,0-2.4-1.1c-2,0-3.2,1.9-3.2,3.7a3.38,3.38,0,0,0,3.2,3.6,3.59,3.59,0,0,0,2.4-1.1v2.5a5.35,5.35,0,0,1-7.8-5,5.52,5.52,0,0,1,5.3-5.8,5,5,0,0,1,2.4.6v2.6h0.1Z" transform="translate(-2 -2)"/><path class="cls-1" d="M165.4,12.2v2.4h3.4v1.8h-3.4v2.9h3.5v1.8h-5.6V10.3h5.6v1.8h-3.5v0.1Z" transform="translate(-2 -2)"/><path class="cls-1" d="M177.9,21.2h-2.1v-9h-2.2V10.4h6.5v1.8h-2.2v9h0Z" transform="translate(-2 -2)"/><path class="cls-1" d="M183,12.2v2.4h3.4v1.8H183v2.9h3.5v1.8h-5.6V10.3h5.6v1.8H183v0.1Z" transform="translate(-2 -2)"/><path class="cls-1" d="M190,19.4h3v1.8h-5.1V10.4H190v9Z" transform="translate(-2 -2)"/><path class="cls-1" d="M195.8,12.2v2.4h3.4v1.8h-3.4v2.9h3.5v1.8h-5.6V10.3h5.6v1.8h-3.5v0.1Z" transform="translate(-2 -2)"/><path class="cls-1" d="M205.8,12.8a2,2,0,0,0-1.6-.9,1.24,1.24,0,0,0-1.3,1.2c0,1.8,4.3,1.1,4.3,4.7a3.44,3.44,0,0,1-3.6,3.7,3.81,3.81,0,0,1-3.3-2.1l1.4-1.3a2.26,2.26,0,0,0,2,1.6,1.42,1.42,0,0,0,1.4-1.6c0-1.1-1-1.4-1.9-1.8-1.4-.6-2.4-1.3-2.4-3a3.1,3.1,0,0,1,3.2-3.2,4.71,4.71,0,0,1,3,1.2Z" transform="translate(-2 -2)"/><path class="cls-1" d="M215.5,13.2a3.19,3.19,0,0,0-2.4-1.1c-2,0-3.2,1.9-3.2,3.7a3.38,3.38,0,0,0,3.2,3.6,3.59,3.59,0,0,0,2.4-1.1v2.5a5.35,5.35,0,0,1-7.8-5A5.52,5.52,0,0,1,213,10a5,5,0,0,1,2.4.6v2.6h0.1Z" transform="translate(-2 -2)"/><path class="cls-1" d="M216.4,15.8a5.41,5.41,0,1,1,10.8,0A5.41,5.41,0,1,1,216.4,15.8Zm2.2-.1c0,1.6,1.4,3.7,3.2,3.7s3.2-2.1,3.2-3.7A3.21,3.21,0,1,0,218.6,15.7Z" transform="translate(-2 -2)"/><path class="cls-1" d="M230.2,21.2h-2.1V10.4H231c2.3,0,3.7.9,3.7,3.4,0,2.3-1.2,3.4-3.5,3.4h-1v4Zm0-5.8h0.4c1.2,0,1.9-.3,1.9-1.7s-0.8-1.6-2-1.6h-0.4v3.3h0.1Z" transform="translate(-2 -2)"/><path class="cls-1" d="M237.8,12.2v2.4h3.4v1.8h-3.4v2.9h3.5v1.8h-5.6V10.3h5.6v1.8h-3.5v0.1Z" transform="translate(-2 -2)"/><path class="cls-1" d="M136.3,28.3a2,2,0,0,0-1.6-.9,1.24,1.24,0,0,0-1.3,1.2c0,1.8,4.3,1.1,4.3,4.7a3.39,3.39,0,0,1-3.6,3.7,3.81,3.81,0,0,1-3.3-2.1l1.4-1.3a2.26,2.26,0,0,0,2,1.6,1.42,1.42,0,0,0,1.4-1.6c0-1.1-1-1.4-1.9-1.8-1.4-.6-2.4-1.3-2.4-3a3.1,3.1,0,0,1,3.2-3.2,4.71,4.71,0,0,1,3,1.2Z" transform="translate(-2 -2)"/><path class="cls-1" d="M146,28.8a3.19,3.19,0,0,0-2.4-1.1c-2,0-3.2,1.9-3.2,3.7a3.38,3.38,0,0,0,3.2,3.6,3.59,3.59,0,0,0,2.4-1.1v2.5a5.35,5.35,0,0,1-7.8-5,5.52,5.52,0,0,1,5.3-5.8,5,5,0,0,1,2.4.6v2.6H146Z" transform="translate(-2 -2)"/><path class="cls-1" d="M149.5,36.8h-2.1V26h2.1V36.8Z" transform="translate(-2 -2)"/><path class="cls-1" d="M153.2,27.8v2.4h3.4V32h-3.4v2.9h3.5v1.8h-5.6V25.9h5.6v1.8h-3.5v0.1Z" transform="translate(-2 -2)"/><path class="cls-1" d="M158.1,25.6h1.5l5.7,7.6h0V25.9h2.1v11h-1.5l-5.7-7.6h0v7.4h-2.1V25.6Z" transform="translate(-2 -2)"/><path class="cls-1" d="M176.2,28.8a3.19,3.19,0,0,0-2.4-1.1c-2,0-3.2,1.9-3.2,3.7a3.38,3.38,0,0,0,3.2,3.6,3.59,3.59,0,0,0,2.4-1.1v2.5a5.35,5.35,0,0,1-7.8-5,5.52,5.52,0,0,1,5.3-5.8,5,5,0,0,1,2.4.6v2.6h0.1Z" transform="translate(-2 -2)"/><path class="cls-1" d="M179.7,27.8v2.4h3.4V32h-3.4v2.9h3.5v1.8h-5.6V25.9h5.6v1.8h-3.5v0.1Z" transform="translate(-2 -2)"/><path class="cls-1" d="M190.9,36.8h-2.1V26h2.1V36.8Z" transform="translate(-2 -2)"/><path class="cls-1" d="M192.4,25.6h1.5l5.7,7.6h0V25.9h2.1v11h-1.5l-5.7-7.6h0v7.4h-2.1V25.6Z" transform="translate(-2 -2)"/><path class="cls-1" d="M208.4,28.3a2,2,0,0,0-1.6-.9,1.24,1.24,0,0,0-1.3,1.2c0,1.8,4.3,1.1,4.3,4.7a3.44,3.44,0,0,1-3.6,3.7,3.81,3.81,0,0,1-3.3-2.1l1.4-1.3a2.26,2.26,0,0,0,2,1.6,1.42,1.42,0,0,0,1.4-1.6c0-1.1-1-1.4-1.9-1.8-1.4-.6-2.4-1.3-2.4-3a3.1,3.1,0,0,1,3.2-3.2,4.71,4.71,0,0,1,3,1.2Z" transform="translate(-2 -2)"/><path class="cls-1" d="M214.4,36.8h-2.1v-9h-2.2V26h6.5v1.8h-2.2v9Z" transform="translate(-2 -2)"/><path class="cls-1" d="M219.5,36.8h-2.1V26h2.1V36.8Z" transform="translate(-2 -2)"/><path class="cls-1" d="M224.5,36.8h-2.1v-9h-2.2V26h6.5v1.8h-2.2v9h0Z" transform="translate(-2 -2)"/><path class="cls-1" d="M227.4,25.9h2.1V32c0,1.3.1,3.2,1.9,3.2s1.9-1.9,1.9-3.2V25.9h2.1v6.5c0,2.6-1.1,4.6-4,4.6s-4-2-4-4.6V25.9Z" transform="translate(-2 -2)"/><path class="cls-1" d="M240.5,36.8h-2.1v-9h-2.2V26h6.5v1.8h-2.2v9h0Z" transform="translate(-2 -2)"/><path class="cls-1" d="M245.6,27.8v2.4H249V32h-3.4v2.9h3.5v1.8h-5.7V25.9H249v1.8h-3.4v0.1Z" transform="translate(-2 -2)"/><rect class="cls-1" x="120.6" y="8.4" width="1.2" height="26.4"/><circle class="cls-2" cx="21.6" cy="21.6" r="21.6"/><path class="cls-3" d="M23.6,44A20.4,20.4,0,1,1,44,23.6,20.42,20.42,0,0,1,23.6,44Zm0-40.3A19.8,19.8,0,1,0,43.4,23.5,19.85,19.85,0,0,0,23.6,3.7Z" transform="translate(-2 -2)"/><path class="cls-3" d="M33.3,15.7a9.6,9.6,0,0,0-19.2,0H13.2V37.2H34.3V15.7h-1ZM23.6,7a9,9,0,0,1,9,9,8.91,8.91,0,0,1-3.8,7.3L28,15.5h0a4.55,4.55,0,0,0-4.5-4.1A4.48,4.48,0,0,0,19,15.5h0l-0.8,7.8A8.91,8.91,0,0,1,14.4,16,9.27,9.27,0,0,1,23.6,7Zm0,27.4L23,31.6h1.2Zm1.2-2.7a9.93,9.93,0,0,1,7.5,5H23.7Zm-1.3,4.9H14.9a10.1,10.1,0,0,1,7.5-5ZM23.6,31H22.9l-0.2-.8c0.3,0,.6.1,0.9,0.1h0a2.77,2.77,0,0,0,.9-0.1l-0.2.8H23.6Zm0-1.3h0c-0.4,0-.7-0.1-1.1-0.1l-0.9-4.1a12.31,12.31,0,0,0,2,.2,13.55,13.55,0,0,0,2-.2l-0.9,4A3.59,3.59,0,0,1,23.6,29.7ZM19.4,18.2l0.5,2.5a9,9,0,0,0-.9,1Zm0.9,0.9a6.47,6.47,0,0,0,.9.8,4.35,4.35,0,0,1-.7.4Zm1.5,1.1a5.84,5.84,0,0,0,1.8.4,3.92,3.92,0,0,0,1.8-.4,7.46,7.46,0,0,1,1.2.7l-0.9,3.9a7.5,7.5,0,0,1-4.2,0l-0.9-3.9A7.46,7.46,0,0,1,21.8,20.2Zm6.3,1.5a4.3,4.3,0,0,0-.9-1l0.5-2.5Zm-1.4-1.4a1.61,1.61,0,0,0-.7-0.4,6.47,6.47,0,0,0,.9-0.8Zm0.4,1.1a4.57,4.57,0,0,1,1.2,2.4,8.18,8.18,0,0,1-1.9.9ZM27.6,16a3.9,3.9,0,1,1-3.9-3.9A3.9,3.9,0,0,1,27.6,16Zm-7.5,5.4,0.7,3.3a6.63,6.63,0,0,1-1.9-.9A5,5,0,0,1,20.1,21.4ZM21,25.3l0.9,4a4.36,4.36,0,0,1-2.4-2.2l-2.1-3.9A8.18,8.18,0,0,0,21,25.3Zm5.2,0a10.23,10.23,0,0,0,3.7-2l-2.1,3.9a4.23,4.23,0,0,1-2.4,2.1Zm-12.5-9H14a9.33,9.33,0,0,0,1.2,4.4h0l3.7,6.7A5.48,5.48,0,0,0,22,30l0.2,1.1a10.74,10.74,0,0,0-8.1,5.6H13.6V16.3h0.1ZM33.6,36.6H33.1A11,11,0,0,0,25,31l0.2-1.1a5.48,5.48,0,0,0,3.1-2.6L32,20.6h0a8.31,8.31,0,0,0,1.2-4.4h0.3V36.6h0.1Z" transform="translate(-2 -2)"/></svg>